<svg width="259" height="71" viewBox="0 0 259 71" fill="none" xmlns="http://www.w3.org/2000/svg">
<rect width="259" height="71" fill="white"/>
<path d="M119.929 17.6987H117.972V19.4619H119.929V17.6987Z" fill="#4495F7"/>
<path d="M131.934 17.6987H129.977V19.4619H131.934V17.6987Z" fill="#4495F7"/>
<path d="M106.232 29.2143H108.786V37.9951C107.625 38.937 106.232 39.6662 104.607 40.1827C102.982 40.6993 101.324 40.9423 99.5331 40.9423C97.0127 40.9423 94.7576 40.4258 92.7346 39.4232C90.7117 38.4205 89.153 37.0229 87.9923 35.2302C86.8316 33.4376 86.2678 31.4323 86.2678 29.2143C86.2678 26.9963 86.8316 24.991 87.9923 23.1984C89.153 21.4058 90.7117 20.0082 92.7346 19.0055C94.7576 18.0028 97.0127 17.4863 99.5663 17.4863C101.49 17.4863 103.247 17.7598 104.839 18.3371C106.431 18.884 107.791 19.7347 108.885 20.8285L107.227 22.3781C105.237 20.5854 102.717 19.6739 99.6326 19.6739C97.6096 19.6739 95.7525 20.0993 94.1275 20.9197C92.4693 21.74 91.2091 22.8946 90.2806 24.353C89.352 25.8114 88.8877 27.4521 88.8877 29.2447C88.8877 31.0373 89.352 32.678 90.2806 34.1061C91.2091 35.5341 92.5025 36.6886 94.1275 37.5394C95.7525 38.3597 97.5765 38.7851 99.6326 38.7851C102.219 38.7851 104.408 38.2078 106.199 37.0229L106.232 29.2143Z" fill="#4495F7"/>
<path d="M132 34.5615H117.972L114.954 40.7294H112.201L123.709 17.6987H126.329L137.836 40.7294H135.018L132 34.5615ZM131.038 32.5866L125.002 20.2206L118.967 32.5866H131.038Z" fill="#4495F7"/>
<path d="M158.928 40.7294L153.191 33.3158C152.528 33.3766 151.865 33.407 151.168 33.407H144.403V40.699H141.75V17.6987H151.168C154.385 17.6987 156.905 18.3975 158.729 19.7952C160.553 21.1928 161.449 23.1374 161.449 25.5984C161.449 27.391 160.951 28.9102 159.956 30.1559C158.962 31.4016 157.536 32.2828 155.678 32.8297L161.814 40.7294H158.928ZM156.806 29.8521C158.133 28.8494 158.796 27.4214 158.796 25.5984C158.796 23.7754 158.133 22.2866 156.806 21.3144C155.479 20.3117 153.589 19.8256 151.102 19.8256H144.436V31.3713H151.102C153.589 31.3409 155.479 30.8547 156.806 29.8521Z" fill="#4495F7"/>
<path d="M172.857 19.7952H164.036V17.6987H184.365V19.7952H175.51V40.7294H172.857V19.7952Z" fill="#4495F7"/>
<path d="M209.469 17.6987V40.7294H207.28L191.097 22.0436V40.7294H188.444V17.6987H190.632L206.849 36.3845V17.6987H209.469Z" fill="#4495F7"/>
<path d="M233.313 38.633V40.7295H215.538V17.6685H232.783V19.7649H218.191V27.9684H231.191V30.0649H218.191V38.633H233.313Z" fill="#4495F7"/>
<path d="M255.931 40.7294L250.194 33.3158C249.53 33.3766 248.867 33.407 248.171 33.407H241.405V40.699H238.752V17.6987H248.171C251.387 17.6987 253.908 18.3975 255.732 19.7952C257.556 21.1928 258.451 23.1374 258.451 25.5984C258.451 27.391 257.954 28.9102 256.959 30.1559C255.964 31.4016 254.538 32.2828 252.714 32.8297L258.849 40.7294H255.931ZM253.808 29.8521C255.135 28.8494 255.798 27.4214 255.798 25.5984C255.798 23.7754 255.135 22.2866 253.808 21.3144C252.482 20.3117 250.591 19.8256 248.104 19.8256H241.405V31.3713H248.104C250.591 31.3409 252.482 30.8547 253.808 29.8521Z" fill="#4495F7"/>
<path d="M2.06641 17.6987H7.86997V36.4149H21.4669V40.7597H2.06641V17.6987Z" fill="#4495F7"/>
<path d="M48.6938 28.9103C48.6938 22.074 54.5306 17 62.4566 17C70.3826 17 76.2193 22.0436 76.2193 28.9103C76.2193 35.7769 70.3494 40.8206 62.4566 40.8206C54.5637 40.8206 48.6938 35.7769 48.6938 28.9103ZM70.3163 28.9103C70.3163 24.5351 66.9336 21.5271 62.4566 21.5271C57.9795 21.5271 54.5969 24.5351 54.5969 28.9103C54.5969 33.2855 57.9795 36.2935 62.4566 36.2935C66.9336 36.2935 70.3163 33.2855 70.3163 28.9103Z" fill="#4495F7"/>
<path d="M23.324 28.9406C23.324 21.9828 29.1607 17.0303 36.9872 17.0303C41.3316 17.0303 44.9464 18.4887 47.3341 21.1017L43.5867 24.2615C41.8954 22.4689 39.7729 21.5574 37.2525 21.5574C32.5433 21.5574 29.1939 24.5957 29.1939 28.9406C29.1939 33.2854 32.5433 36.3237 37.2525 36.3237C39.7729 36.3237 41.8954 35.4122 43.5867 33.5892L47.301 36.7491C44.9464 39.4228 41.2984 40.8509 36.9209 40.8509C29.1275 40.8812 23.324 35.8984 23.324 28.9406Z" fill="#4495F7"/>
<path d="M37.0205 27.4515L33.1404 26.5704L29.2603 27.4515L25.3802 26.5704V27.4515H21.4669V29.2138H27.2705V28.7884L29.2271 29.2138L33.1072 28.3327L36.9873 29.2138L40.8674 28.3327V26.54L37.0205 27.4515Z" fill="#4495F7"/>
<path d="M37.0205 31.0067L33.1404 30.1256L29.2603 31.0067L25.3802 30.1256V31.0067H21.4669V32.7993H27.2705V32.374L29.2271 32.7993L33.1404 31.8878L37.0205 32.769L40.9006 31.8878V30.0952L37.0205 31.0067Z" fill="#4495F7"/>
<path d="M16.6581 47.1704L13.4413 56.012H11.9821L9.36223 48.9326L6.70918 56.012H5.21683L2 47.1704H3.42602L6.04591 54.3713L8.7653 47.1704H10.0255L12.6786 54.4017L15.3316 47.1704H16.6581Z" fill="#4495F7"/>
<path d="M18.3496 47.1704H19.7425V56.012H18.3496V47.1704Z" fill="#4495F7"/>
<path d="M22.5944 47.1704H23.9872V54.9182H29.227V56.012H22.5944V47.1704V47.1704Z" fill="#4495F7"/>
<path d="M30.819 47.1704H32.2118V54.9182H37.4516V56.012H30.819V47.1704Z" fill="#4495F7"/>
<path d="M42.1606 52.0925L40.403 53.7332V56.012H39.0101V47.1704H40.403V52.1229L45.6428 47.1704H47.2014L43.0892 51.1506L47.4667 56.012H45.8418L42.1606 52.0925Z" fill="#4495F7"/>
<path d="M47.7985 51.6067C47.7985 49.0241 49.9872 47.0796 52.9388 47.0796C55.8903 47.0796 58.0459 48.9937 58.0459 51.6067C58.0459 54.2197 55.8571 56.1338 52.9388 56.1338C49.9541 56.1338 47.7985 54.1893 47.7985 51.6067ZM56.6862 51.6067C56.6862 49.6622 55.0944 48.2038 52.9388 48.2038C50.7832 48.2038 49.1582 49.6318 49.1582 51.6067C49.1582 53.5513 50.75 55.0097 52.9388 55.0097C55.0612 54.9793 56.6862 53.5513 56.6862 51.6067Z" fill="#4495F7"/>
<path d="M69.1224 56.012V49.5707L65.6071 54.9486H64.977L61.4949 49.6011V56.012H60.1683V47.1704H61.2959L65.3086 53.399L69.2882 47.1704H70.4158V56.012H69.1224Z" fill="#4495F7"/>
<path d="M82.2882 56.012V49.5707L78.7729 54.9486H78.1428L74.6606 49.6011V56.012H73.3341V47.1704H74.4617L78.4744 53.399L82.454 47.1704H83.5815V56.012H82.2882Z" fill="#4495F7"/>
<path d="M93.5305 54.9182V56.012H86.5331V47.1704H93.3647V48.2642H87.9259V50.9683H92.7678V52.0318H87.9259V54.8878L93.5305 54.9182Z" fill="#4495F7"/>
<path d="M104.076 47.1704V56.012H102.949L97.1453 49.4188V56.012H95.7524V47.1704H96.88L102.684 53.7636V47.1704H104.076Z" fill="#4495F7"/>
<path d="M110.676 47.1704H112.069V56.012H110.676V47.1704Z" fill="#4495F7"/>
<path d="M123.908 56.012V49.5707L120.393 54.9486H119.763L116.281 49.6011V56.012H114.954V47.1704H116.082L120.094 53.399L124.074 47.1704H125.201V56.012H123.908Z" fill="#4495F7"/>
<path d="M130.939 55.0095L131.436 54.0373C132.166 54.6449 133.393 55.0703 134.62 55.0703C136.278 55.0703 137.007 54.4626 137.007 53.7031C137.007 51.5458 131.171 52.9131 131.171 49.6317C131.171 48.2644 132.331 47.1099 134.885 47.1099C136.013 47.1099 137.173 47.3833 138.002 47.8998L137.538 48.9025C136.709 48.4164 135.747 48.1733 134.885 48.1733C133.227 48.1733 132.53 48.8113 132.53 49.5709C132.53 51.7281 138.367 50.3913 138.367 53.6423C138.367 55.0095 137.173 56.1641 134.62 56.1641C133.161 56.1337 131.735 55.678 130.939 55.0095Z" fill="#4495F7"/>
<path d="M142.181 48.2642H138.865V47.1704H146.857V48.2642H143.541V56.012H142.181V48.2642Z" fill="#4495F7"/>
<path d="M155.38 54.9182V56.012H148.383V47.1704H155.214V48.2642H149.775V50.9683H154.617V52.0318H149.775V54.8878L155.38 54.9182Z" fill="#4495F7"/>
<path d="M157.536 52.2141V47.1704H158.928V52.1533C158.928 54.0978 159.923 55.0093 161.648 55.0093C163.372 55.0093 164.367 54.1282 164.367 52.1533V47.1704H165.694V52.2141C165.694 54.7663 164.168 56.1335 161.615 56.1335C159.061 56.1335 157.536 54.7663 157.536 52.2141Z" fill="#4495F7"/>
<path d="M175.543 54.9182V56.012H168.546V47.1704H175.377V48.2642H169.939V50.9683H174.78V52.0318H169.939V54.8878L175.543 54.9182Z" fill="#4495F7"/>
<path d="M184.232 56.012L182.143 53.3079C181.944 53.3079 181.745 53.3382 181.546 53.3382H179.158V56.0424H177.765V47.1704H181.546C184.066 47.1704 185.558 48.325 185.558 50.2695C185.558 51.6368 184.796 52.609 183.436 53.0648L185.724 56.0424L184.232 56.012ZM184.166 50.2391C184.166 48.963 183.237 48.2642 181.479 48.2642H179.158V52.2444H181.512C183.27 52.2444 184.166 51.5152 184.166 50.2391Z" fill="#4495F7"/>
<path d="M195.574 50.2391C195.574 52.1533 194.048 53.3382 191.561 53.3382H189.173V56.012H187.78V47.1704H191.561C194.081 47.1704 195.574 48.325 195.574 50.2391ZM194.214 50.2391C194.214 48.963 193.285 48.2642 191.528 48.2642H189.173V52.2444H191.528C193.285 52.2444 194.214 51.5152 194.214 50.2391Z" fill="#4495F7"/>
<path d="M203.301 53.794H198.16L197.099 56.012H195.673L200.051 47.1704H201.41L205.788 56.012H204.362L203.301 53.794ZM202.803 52.7913L200.714 48.4465L198.625 52.7913H202.803Z" fill="#4495F7"/>
<path d="M213.681 56.012L211.592 53.3079C211.393 53.3079 211.194 53.3382 210.995 53.3382H208.607V56.0424H207.214V47.1704H210.995C213.515 47.1704 215.007 48.325 215.007 50.2695C215.007 51.6368 214.245 52.609 212.885 53.0648L215.173 56.0424L213.681 56.012ZM213.648 50.2391C213.648 48.963 212.719 48.2642 210.962 48.2642H208.607V52.2444H210.962C212.719 52.2444 213.648 51.5152 213.648 50.2391Z" fill="#4495F7"/>
<path d="M223.431 53.794H218.29L217.229 56.012H215.803L220.181 47.1704H221.54L225.918 56.012H224.459L223.431 53.794ZM222.933 52.7913L220.844 48.4465L218.755 52.7913H222.933Z" fill="#4495F7"/>
<path d="M227.344 47.1704H231.423C234.54 47.1704 236.63 48.963 236.63 51.6064C236.63 54.2497 234.507 56.0424 231.423 56.0424H227.344V47.1704ZM231.357 54.9182C233.745 54.9182 235.27 53.5813 235.27 51.6064C235.27 49.6315 233.745 48.2946 231.357 48.2946H228.737V54.9486L231.357 54.9182Z" fill="#4495F7"/>
<path d="M238.752 47.1704H240.145V56.012H238.752V47.1704Z" fill="#4495F7"/>
<path d="M250.028 54.9182V56.012H243.03V47.1704H249.862V48.2642H244.423V50.9683H249.265V52.0318H244.423V54.8878L250.028 54.9182Z" fill="#4495F7"/>
<path d="M251.387 55.0095L251.885 54.0373C252.614 54.6449 253.841 55.0703 255.068 55.0703C256.727 55.0703 257.456 54.4626 257.456 53.7031C257.456 51.5458 251.619 52.9131 251.619 49.6317C251.619 48.2644 252.78 47.1099 255.334 47.1099C256.461 47.1099 257.622 47.3833 258.451 47.8998L257.987 48.9025C257.158 48.4164 256.196 48.1733 255.334 48.1733C253.676 48.1733 252.979 48.8113 252.979 49.5709C252.979 51.7281 258.816 50.3913 258.816 53.6423C258.816 55.0095 257.622 56.1641 255.068 56.1641C253.609 56.1337 252.15 55.678 251.387 55.0095Z" fill="#4495F7"/>
</svg>
